<svg width="24" height="24" viewBox="0 0 24 24" fill="none" xmlns="http://www.w3.org/2000/svg">
<path d="M9.2 5.3C8.2 4.5 6.6 4.5 5.6 5.3C4.8 5.9 4.3 6.9 4.3 7.9C4.3 8.5 4.5 9.1 4.8 9.6C3.9 10.3 3.4 11.3 3.4 12.4C3.4 13.8 4.2 15.1 5.4 15.8C5.5 17.7 7.1 19.1 9.1 19.1H10.5V5.3H9.2Z" stroke="#C5C5C5" stroke-width="1.6" stroke-linecap="round" stroke-linejoin="round"/>
<path d="M14.8 5.3C15.8 4.5 17.4 4.5 18.4 5.3C19.2 5.9 19.7 6.9 19.7 7.9C19.7 8.5 19.5 9.1 19.2 9.6C20.1 10.3 20.6 11.3 20.6 12.4C20.6 13.8 19.8 15.1 18.6 15.8C18.5 17.7 16.9 19.1 14.9 19.1H13.5V5.3H14.8Z" stroke="#C5C5C5" stroke-width="1.6" stroke-linecap="round" stroke-linejoin="round"/>
<path d="M10.5 8.1C9.6 7.4 8.5 7.3 7.6 7.8" stroke="#C5C5C5" stroke-width="1.4" stroke-linecap="round"/>
<path d="M10.5 11.2C9.4 10.6 8.1 10.8 7.2 11.7" stroke="#C5C5C5" stroke-width="1.4" stroke-linecap="round"/>
<path d="M10.5 14.4C9.7 14.1 8.8 14.3 8.2 14.9" stroke="#C5C5C5" stroke-width="1.4" stroke-linecap="round"/>
<path d="M13.5 8.1C14.4 7.4 15.5 7.3 16.4 7.8" stroke="#C5C5C5" stroke-width="1.4" stroke-linecap="round"/>
<path d="M13.5 11.2C14.6 10.6 15.9 10.8 16.8 11.7" stroke="#C5C5C5" stroke-width="1.4" stroke-linecap="round"/>
<path d="M13.5 14.4C14.3 14.1 15.2 14.3 15.8 14.9" stroke="#C5C5C5" stroke-width="1.4" stroke-linecap="round"/>
<path d="M12 5V19" stroke="#C5C5C5" stroke-width="1.4" stroke-linecap="round"/>
</svg>
